<mxfile host="app.diagrams.net" modified="2023-11-22T15:42:50.098Z" agent="Mozilla/5.0 (Windows NT 10.0; Win64; x64) AppleWebKit/537.36 (KHTML, like Gecko) Chrome/119.0.0.0 Safari/537.36" version="22.1.3" etag="T8mwEDXBNXHd1dulwT_B" type="github">
  <diagram name="Page-1" id="hwnsgyCamHL9Ie1r9exi">
    <mxGraphModel>
      <root>
        <mxCell id="0" />
        <mxCell id="1" parent="0" />
      </root>
    </mxGraphModel>
  </diagram>
</mxfile>
